<?xml version="1.0" encoding="utf-8" ?>
<svg baseProfile="full" height="300mm" version="1.1" viewBox="0,0,200,300" width="200mm" xmlns="http://www.w3.org/2000/svg" xmlns:ev="http://www.w3.org/2001/xml-events" xmlns:xlink="http://www.w3.org/1999/xlink"><defs /><rect fill="#222222" height="300" width="200" x="0" y="0" /><text fill="#FFFFFF" style="font-size:12px; font-family:Arial; font-weight:bold;" x="10" y="20">Over 5km Runs</text><text fill="#FFFFFF" style="font-size:4px; font-family:Arial" x="10" y="280">ATHLETE</text><text fill="#FFFFFF" style="font-size:9px; font-family:Arial" x="10" y="290">sun0225SUN</text><text fill="#FFFFFF" style="font-size:4px; font-family:Arial" x="120" y="280">STATISTICS</text><text fill="#FFFFFF" style="font-size:3px; font-family:Arial" x="120" y="285">Number: 1</text><text fill="#FFFFFF" style="font-size:3px; font-family:Arial" x="120" y="290">Weekly: 1.0</text><text fill="#FFFFFF" style="font-size:3px; font-family:Arial" x="141" y="285">Total: 5.3 km</text><text fill="#FFFFFF" style="font-size:3px; font-family:Arial" x="141" y="290">Avg: 5.3 km</text><text fill="#FFFFFF" style="font-size:3px; font-family:Arial" x="167" y="285">Min: 5.3 km</text><text fill="#FFFFFF" style="font-size:3px; font-family:Arial" x="167" y="290">Max: 5.3 km</text><polyline fill="none" points="127.94966646423563,185.72402308264282 121.46573681011796,188.63777120411396 115.57125530624762,187.82192254788242 113.80291085503995,169.87309114064556 101.9157064887695,172.4372287680162 93.07398423273116,172.0875740069896 85.70588235277683,169.63998740864918 65.66464523971081,158.33439404109959 41.20254699792713,157.6350749747362 35.60278956918046,160.19924259907566 35.40630685258657,179.08064701943658 28.824135839939117,178.8475453387946 26.957550030201674,174.06894944002852 24.894481503870338,172.90343493386172 20.277137659024447,174.65170620614663 19.0,185.840573163121 20.67010309221223,190.15291702002287 24.010309278033674,190.9687638580799 27.05579138873145,189.22051985457074 28.52941176481545,179.31374864815734 36.38872043648735,177.79858713340946 36.09399636089802,160.19924259907566 31.67313523311168,154.2550262301229 31.18192844139412,150.64185859810095 31.280169799923897,118.23934589093551 34.62037598574534,111.12930773419794 39.827167980372906,108.91469581366982 60.94906003633514,108.79813716176432 67.43298969045281,109.14781307906378 83.05336567619815,114.74261185363866 149.07155852019787,114.39293780678418 167.54093389911577,116.49098033341579 170.29169193422422,121.2698392678285 170.88114008447155,176.16687227843795 172.94420861126855,174.88480882160366 172.84596725273877,188.1715720499633 176.08793208003044,191.20186283823568 180.90175864100456,188.9874204332009 181.0,177.79858713340946 175.98969072150066,173.8358466423815 172.747725894209,174.18550081911962 169.40751970838755,178.26479090983048 161.7446937537752,179.31374864815734 144.9454214675352,178.26479090983048 140.03335354756564,180.36270533432253 137.28259551199153,185.72402308264282 130.9951485749334,186.88952330488246 130.79866585787386,188.05502222909126 131.19163129106164,186.88952330488246 138.46149181295186,188.52122143481392 133.05821710079908,181.87786313542165" stroke="#4DD2FF" stroke-linecap="round" stroke-linejoin="round" stroke-width="0.5"><title>2022-03-07 5.3km</title></polyline></svg>