<?xml version="1.0" encoding="utf-8" ?>
<svg baseProfile="full" height="200mm" version="1.1" viewBox="0,0,200,200" width="200mm" xmlns="http://www.w3.org/2000/svg" xmlns:ev="http://www.w3.org/2001/xml-events" xmlns:xlink="http://www.w3.org/1999/xlink"><defs /><rect fill="#1a1a1a" height="200" width="200" x="0" y="0" /><text alignment-baseline="middle" fill="#e1ed5e" style="dominant-baseline: central; font-size:9.0px; font-family:Arial;" text-anchor="middle" x="100.0" y="100.0">2022</text><line stroke="#e1ed5e" stroke-width="0.3" x1="100.0" x2="100.0" y1="15.0" y2="10.0" /><path d="M 100.0 14.0 a86.0,86.0 0 0,1 42.46469731375804,11.215312516191453" fill="none" id="id1" stroke="none" /><text fill="#e1ed5e" style="font-size:6.75px; font-family:Arial;" text-anchor="middle"><textPath startOffset="22.20632615414155" xlink:href="#id1">January</textPath></text><path d="M 110.36928655335952 81.73862282372117 l 16.972529940550952 -29.890366061845302 a55.372965480068956,55.372965480068956 0 0,0 0.8248021207261976,0.47777862561775214 l -17.48452879374248 29.593783278837503" fill="#ff6409" stroke="none" /><line stroke="#e1ed5e" stroke-width="0.3" x1="143.23703022742887" x2="145.7803849466894" y1="26.81831364943548" y2="22.513508569990506" /><path d="M 143.74570117128098 25.957352633546492 a86.0,86.0 0 0,1 28.547481713284135,27.462654790039103" fill="none" id="id2" stroke="none" /><text fill="#e1ed5e" style="font-size:6.75px; font-family:Arial;" text-anchor="middle"><textPath startOffset="19.985693538727396" xlink:href="#id2">February</textPath></text><path d="M 112.48926042617603 83.11751280151076 l 26.97190033363313 -36.459545766787194 a66.35175724410124,66.35175724410124 0 0,0 0.9123488147202051,0.6871622122727256 l -27.595495302111715 35.98986696500862" fill="#96ff23" stroke="none" /><path d="M 115.9244219780498 86.31012108654704 l 31.826529257876278 -27.360574366615257 a62.97057295622182,62.97057295622182 0 0,0 0.6995412539677007,0.8280361980280033 l -32.292781125331096 26.808679218958147" fill="#e0ff1b" stroke="none" /><path d="M 117.45458315368197 88.32363383020206 l 47.86277183263805 -32.018137866642945 a78.58477298688018,78.58477298688018 0 0,0 0.7424515890586039,1.1308047068119258 l -48.40682005705458 31.189515095853345" fill="#40ffc7" stroke="none" /><path d="M 117.65298651832404 88.62581576622439 l 38.40167054629385 -24.74299038436976 a66.68264302672414,66.68264302672414 0 0,0 0.6133926877211983,0.9702399254023545 l -38.821890830261005 24.078302811253202" fill="#8fff24" stroke="none" /><line stroke="#e1ed5e" stroke-width="0.3" x1="172.23445277983987" x2="176.4835382374775" y1="55.19839476539836" y2="52.563006222186495" /><path d="M 173.08426987136738 54.67131705675599 a86.0,86.0 0 0,1 12.851231095245387,41.99856678651699" fill="none" id="id3" stroke="none" /><text fill="#e1ed5e" style="font-size:6.75px; font-family:Arial;" text-anchor="middle"><textPath startOffset="22.20632615414155" xlink:href="#id3">March</textPath></text><path d="M 118.89224826269711 90.83032412892265 l 56.676744788091334 -27.509027613232025 a84.0,84.0 0 0,0 0.6201672246329752,1.3062303374378386 l -57.14187020656606 26.529354860153646" fill="#4dd2ff" stroke="none" /><path d="M 119.04729006885535 91.15688171328212 l 31.541829195161128 -14.643979565804107 a55.77546730815284,55.77546730815284 0 0,0 0.3967964564821248,0.8742883944949025 l -31.7892279686066 14.098869162467143" fill="#ff6f0a" stroke="none" /><path d="M 119.196687751892 91.48605970444005 l 28.050695842318188 -12.440789407895148 a51.68574226460626,51.68574226460626 0 0,0 0.35370101581432,0.8163907105641084 l -28.26068756797519 11.956099552744437" fill="#ff0000" stroke="none" /><path d="M 120.83666639777658 97.38593545837742 l 34.1731122381474 -4.2871887121138474 a55.440987022649274,55.440987022649274 0 0,0 0.1106434378691352,0.947925406853943 l -34.24184602902012 3.6983195669350515" fill="#ff6609" stroke="none" /><path d="M 120.94382443527127 98.46500227214037 l 37.47460711108356 -2.7465583922233 a58.57512157175232,58.57512157175232 0 0,0 0.06504462937608457,1.0062116270136263 l -37.516332331464056 2.1010877009566387" fill="#ffb610" stroke="none" /><path d="M 120.96714384426684 98.82574320788733 l 43.461466117853995 -2.4340426222629934 a64.52957156463137,64.52957156463137 0 0,0 0.05256514912901,1.1095672183983183 l -43.4969248752165 1.6855642972416756" fill="#bdff1f" stroke="none" /><path d="M 120.98425023603335 99.18683210126433 l 35.004460952439395 -1.3564699066632235 a56.03073360891172,56.03073360891172 0 0,0 0.029051416543247045,0.9640750816465343 l -35.022624063438286 0.7537246775916902" fill="#ff750a" stroke="none" /><line stroke="#e1ed5e" stroke-width="0.3" x1="184.98032266829074" x2="189.97916517819016" y1="98.17113171792111" y2="98.06355123074" /><path d="M 185.9800911702706 98.14961562048488 a86.0,86.0 0 0,1 -9.607161424134198,41.387399972396054" fill="none" id="id4" stroke="none" /><text fill="#e1ed5e" style="font-size:6.75px; font-family:Arial;" text-anchor="middle"><textPath startOffset="21.466115282336823" xlink:href="#id4">April</textPath></text><path d="M 120.99513854157772 99.54816195383933 l 42.44833319726841 -0.9135339543793962 a63.45816217775003,63.45816217775003 0 0,0 0.014102799581257696,1.0922773693988355 l -42.457769003967385 0.18272032692009807" fill="#d5ff1c" stroke="none" /><path d="M 120.99980553446 99.90962569577887 l 34.94959424281388 -0.15040831008277902 a55.94991788827366,55.94991788827366 0 0,0 -0.004144830424327199,0.9631126196139543 l -34.94700511510005 -0.45121378773486" fill="#ff730a" stroke="none" /><path d="M 120.9764740272857 100.99374915477107 l 34.846459260181206 1.6508322319339883 a55.8855409880578,55.8855409880578 0 0,0 -0.0537928912377714,0.9605082090707644 l -34.81288001805591 -2.250412157340176" fill="#ff720a" stroke="none" /><line stroke="#e1ed5e" stroke-width="0.3" x1="174.80103733775053" x2="179.2010983576182" y1="140.37084112569926" y2="142.7455964860345" /><path d="M 175.68104954172406 140.8457921977663 a86.0,86.0 0 0,1 -30.038265399797805,32.042727171017184" fill="none" id="id5" stroke="none" /><text fill="#e1ed5e" style="font-size:6.75px; font-family:Arial;" text-anchor="middle"><textPath startOffset="22.206326154141568" xlink:href="#id5">May</textPath></text><line stroke="#e1ed5e" stroke-width="0.3" x1="143.8653032363475" x2="146.44561519142675" y1="172.8068346515853" y2="177.08958963109032" /><path d="M 144.38136562736335 173.6633856474863 a86.0,86.0 0 0,1 -40.68145358897372,12.25698825130547" fill="none" id="id6" stroke="none" /><text fill="#e1ed5e" style="font-size:6.75px; font-family:Arial;" text-anchor="middle"><textPath startOffset="21.466115282336833" xlink:href="#id6">June</textPath></text><line stroke="#e1ed5e" stroke-width="0.3" x1="102.19456741930631" x2="102.32365962044197" y1="184.97166512339345" y2="189.96999836594603" /><path d="M 102.22038585953345 185.97133177190398 a86.0,86.0 0 0,1 -42.740103519485714,-10.115201625700543" fill="none" id="id7" stroke="none" /><text fill="#e1ed5e" style="font-size:6.75px; font-family:Arial;" text-anchor="middle"><textPath startOffset="22.20632615414155" xlink:href="#id7">July</textPath></text><line stroke="#e1ed5e" stroke-width="0.3" x1="58.666819895761336" x2="56.23545636021788" y1="174.27360380694188" y2="178.64263932499728" /><path d="M 58.180547188652646 175.14741091055294 a86.0,86.0 0 0,1 -31.652253787137756,-30.449443065178592" fill="none" id="id8" stroke="none" /><text fill="#e1ed5e" style="font-size:6.75px; font-family:Arial;" text-anchor="middle"><textPath startOffset="22.20632615414155" xlink:href="#id8">August</textPath></text><line stroke="#e1ed5e" stroke-width="0.3" x1="26.63291911575756" x2="22.317208475507996" y1="142.92168965132927" y2="145.44649492493687" /><path d="M 25.769776987707644 143.4266507060508 a86.0,86.0 0 0,1 -11.730757126820373,-40.83630448921669" fill="none" id="id9" stroke="none" /><text fill="#e1ed5e" style="font-size:6.75px; font-family:Arial;" text-anchor="middle"><textPath startOffset="21.46611528233685" xlink:href="#id9">September</textPath></text><line stroke="#e1ed5e" stroke-width="0.3" x1="15.007084014347285" x2="10.007500721073583" y1="101.09737516637583" y2="101.16192664675087" /><path d="M 14.007167355692545 101.11028546245083 a86.0,86.0 0 0,1 10.666146001902534,-42.60595125391555" fill="none" id="id10" stroke="none" /><text fill="#e1ed5e" style="font-size:6.75px; font-family:Arial;" text-anchor="middle"><textPath startOffset="22.20632615414155" xlink:href="#id10">October</textPath></text><line stroke="#e1ed5e" stroke-width="0.3" x1="26.266209847984243" x2="21.928928074336255" y1="57.711370442889674" y2="55.22380399835377" /><path d="M 25.398753493254645 57.213857153982495 a86.0,86.0 0 0,1 29.58750427330803,-30.492523968695096" fill="none" id="id11" stroke="none" /><text fill="#e1ed5e" style="font-size:6.75px; font-family:Arial;" text-anchor="middle"><textPath startOffset="21.46611528233685" xlink:href="#id11">November</textPath></text><line stroke="#e1ed5e" stroke-width="0.3" x1="56.762969772571076" x2="54.21961505331055" y1="26.818313649435495" y2="22.513508569990535" /><path d="M 56.25429882871897 25.957352633546506 a86.0,86.0 0 0,1 42.265352541879196,-11.944610805530505" fill="none" id="id12" stroke="none" /><text fill="#e1ed5e" style="font-size:6.75px; font-family:Arial;" text-anchor="middle"><textPath startOffset="22.20632615414155" xlink:href="#id12">December</textPath></text></svg>